# xmcd
#
# Track frame offsets: 
#        150
#        11100
#        22887
#        32528
#        45640
#        58437
#        71511
#        84005
#        95144
#        105358
#        116643
#        126709
#        135929
#        147354
#        161370
#
# Disc length: 2368 seconds
#
# Revision: 0
# Processed by: cddbd v1.5.2PL0 Copyright (c) Steve Scherf et al.
# Submitted via: ExactAudioCopy v1.0b1
#
DISCID=c6093e0f
DTITLE=Various Artist - Brunswick Lost Soul - Volume 1
DYEAR=2011
DGENRE=R&B
TTITLE0=Sugar Pie DeSanto - Do The Whoopie
TTITLE1=Johnny Williams - Your Love Controls My world
TTITLE2=Billy Butler - Come Over To My Side
TTITLE3=B.W. and The Next Edition - Stay With Me Baby
TTITLE4=Marvin Smith - Hold On
TTITLE5=Rocky Roberts and The Airedales - Tell Me
TTITLE6=The Admirations - Lonely Street
TTITLE7=Otil Leavill - You Brought Out The Good In Me
TTITLE8=Lee Charles - Wrong Number
TTITLE9=The Artistics - You Left Me
TTITLE10=Major Lance - Do The Tighten Up
TTITLE11=Johnny Jones and The King Casuals - Chip Off The Old Block
TTITLE12=Little Richard - Baby Don't You Tear My Clothes
TTITLE13=Floyd Smith - Getting Nowhere Fast
TTITLE14=Sidney Joe Qualls - Where The Lilies Grow
EXTD=
EXTT0=
EXTT1=
EXTT2=
EXTT3=
EXTT4=
EXTT5=
EXTT6=
EXTT7=
EXTT8=
EXTT9=
EXTT10=
EXTT11=
EXTT12=
EXTT13=
EXTT14=
PLAYORDER=
